<svg width="223" height="107" viewBox="0 0 223 107" fill="none" xmlns="http://www.w3.org/2000/svg">
<path d="M22.9385 28.2023H21.5967C20.3727 28.2023 19.273 28.6716 18.502 29.5236C17.73 30.3776 17.3712 31.5175 17.4932 32.7355L24.043 98.216C24.3041 100.844 26.7566 103.065 29.3975 103.065H68.9209C71.5617 103.064 74.0133 100.844 74.2754 98.216L80.8232 32.7355C80.9472 31.5176 80.5872 30.3775 79.8164 29.5236C79.0444 28.6726 77.9446 28.2023 76.7207 28.2023H36.4932L35.3174 25.0538H76.7207C78.8456 25.0539 80.7744 25.8913 82.1504 27.4122C83.5253 28.9322 84.168 30.9341 83.9551 33.049L77.4082 98.5324C76.985 102.767 73.1776 106.213 68.9209 106.213H29.3975C25.1416 106.213 21.3333 102.766 20.9092 98.5324L14.3604 33.049C14.1494 30.9341 14.7921 28.9322 16.168 27.4122C17.545 25.8924 19.4728 25.0538 21.5967 25.0538H21.7627L22.9385 28.2023Z" fill="black"/>
<path fill-rule="evenodd" clip-rule="evenodd" d="M135.398 71.7658C137.71 71.7658 139.816 72.1781 141.716 73.0021C143.647 73.7945 145.294 74.9524 146.655 76.4738C148.017 77.9634 149.078 79.7703 149.838 81.8937C150.598 84.017 150.995 86.3943 151.026 89.0245C150.995 91.6553 150.598 94.0185 149.838 96.1105C149.11 98.2019 148.065 99.9769 146.704 101.435C145.343 102.893 143.694 104.018 141.763 104.811C139.863 105.603 137.741 106 135.398 106C133.056 106 130.918 105.603 128.986 104.811C127.087 104.018 125.456 102.892 124.095 101.435C122.733 99.9768 121.671 98.2022 120.911 96.1105C120.183 94.0185 119.804 91.6553 119.772 89.0245C119.804 86.3941 120.2 84.0171 120.96 81.8937C121.72 79.7702 122.78 77.9634 124.142 76.4738C125.503 74.9525 127.134 73.7945 129.033 73.0021C130.933 72.178 133.055 71.7658 135.398 71.7658ZM135.398 75.9503C133.72 75.9504 132.216 76.2999 130.887 76.9972C129.557 77.6945 128.418 78.6454 127.468 79.8497C126.55 81.0223 125.836 82.4 125.329 83.9845C124.854 85.5691 124.6 87.2499 124.568 89.0245C124.6 90.8312 124.854 92.5134 125.329 94.0665C125.836 95.6191 126.55 96.9649 127.468 98.1056C128.418 99.2465 129.557 100.15 130.887 100.816C132.216 101.481 133.72 101.815 135.398 101.816C137.077 101.816 138.582 101.481 139.912 100.816C141.241 100.15 142.364 99.2463 143.282 98.1056C144.232 96.9649 144.945 95.619 145.42 94.0665C145.927 92.5134 146.196 90.8312 146.228 89.0245C146.196 87.2499 145.926 85.5691 145.42 83.9845C144.945 82.4002 144.232 81.0222 143.282 79.8497C142.364 78.6457 141.241 77.6944 139.912 76.9972C138.582 76.2999 137.077 75.9504 135.398 75.9503Z" fill="black"/>
<path d="M94.7002 86.2208H109.141V72.2423H113.605V105.524H109.141V90.4054H94.7002V105.524H90.2383V72.2423H94.7002V86.2208Z" fill="black"/>
<path d="M175.976 76.4269H167.76V105.524H163.295V76.4269H155.077V72.2423H175.976V76.4269Z" fill="black"/>
<path d="M199.165 76.4269H189.951C186.469 76.4271 184.728 77.885 184.728 80.8009V86.2208H195.699V90.4054H184.728V101.339H199.165V105.524H180.263V80.1818C180.263 77.8369 181.007 75.9507 182.494 74.5245C183.507 73.5739 184.649 72.9553 185.915 72.6701C187.181 72.3849 188.733 72.2423 190.569 72.2423H199.165V76.4269Z" fill="black"/>
<path d="M209.085 94.1124C209.085 95.9507 209.29 97.3936 209.701 98.4396C210.524 100.373 212.25 101.339 214.878 101.339H223V105.524H216.065C214.767 105.524 213.737 105.508 212.978 105.477C212.249 105.413 211.331 105.221 210.224 104.904C209.116 104.556 208.181 104.048 207.421 103.383C206.25 102.305 205.489 101.023 205.141 99.5333C204.792 98.0121 204.62 96.2364 204.62 94.2081V72.2423H209.085V94.1124Z" fill="black"/>
<path d="M16.9346 0.622203C18.0886 -0.0487674 19.45 -0.18493 20.667 0.253063C21.8848 0.689137 22.8495 1.65553 23.3154 2.90638L37.0488 39.6876H70.0996C73.5616 39.6877 76.1011 42.5064 75.7441 45.9494L70.7676 93.8673C70.4105 97.3112 67.2842 100.129 63.8213 100.129H34.4941C31.0314 100.129 27.906 97.3101 27.5488 93.8673L22.5752 45.9494C22.2172 42.5054 24.7577 39.6876 28.2207 39.6876H30.1709L17.6016 6.02552L2.76562 15.2179L0 10.4542L16.9346 0.622203Z" fill="black"/>
<path d="M100.972 33.0001C104.39 33.0002 106.955 33.8719 108.665 35.6144C110.406 37.3259 111.278 39.4348 111.278 41.9386C111.278 45.1399 109.79 47.4385 106.813 48.8331V49.0226C110.898 50.1954 112.94 53.0327 112.94 57.5333C112.94 63.6823 109.315 66.7577 102.064 66.7579H96.127V62.5734H102.016C104.2 62.5733 105.8 62.1288 106.813 61.2413C107.826 60.3539 108.333 58.9284 108.333 56.964C108.333 55.2528 107.78 53.9369 106.672 53.0177C105.595 52.0985 104.121 51.6388 102.253 51.6388H97.5508V47.6906H100.592C102.301 47.6905 103.758 47.2318 104.961 46.3126C106.196 45.3618 106.813 44.0937 106.813 42.5089C106.813 40.9878 106.337 39.7194 105.388 38.7052C104.469 37.6914 102.965 37.1847 100.876 37.1847C98.9767 37.1848 97.4257 37.7866 96.2227 38.9904C95.0194 40.1631 94.416 41.8928 94.416 44.1749V66.7579H90V44.0792C90 40.8145 91.0449 38.1512 93.1348 36.091C95.2562 34.0309 97.8688 33.0002 100.972 33.0001Z" fill="black"/>
<path d="M137.058 37.6613H127.844C124.361 37.6614 122.62 39.1185 122.62 42.0343V47.4552H133.592V51.6388H122.62V62.5734H137.058V66.7579H118.155V41.4152C118.155 39.0704 118.899 37.185 120.387 35.7589C121.4 34.8084 122.54 34.1898 123.806 33.9044C125.072 33.6192 126.625 33.4767 128.462 33.4767H137.058V37.6613Z" fill="black"/>
<path fill-rule="evenodd" clip-rule="evenodd" d="M164.739 66.7579H160.276V51.6388H153.862C152.027 51.6389 150.523 51.8594 149.352 52.3029C148.212 52.7466 147.182 53.5077 146.264 54.5851V66.7579H142.036V45.838C142.036 42.4149 143.129 39.4979 145.313 37.089C147.53 34.6804 150.38 33.4769 153.862 33.4767H164.739V66.7579ZM153.862 37.6613C151.551 37.6614 149.699 38.3425 148.306 39.7052C146.945 41.0682 146.264 43.2399 146.264 46.2189V50.2589C148.037 48.3892 150.57 47.4554 153.862 47.4552H160.276V37.6613H153.862Z" fill="black"/>
<path d="M190.407 37.6613H186.75C183.236 37.6614 180.527 38.8317 178.627 41.1769C176.759 43.4906 175.794 46.4716 175.73 50.1163C175.794 53.7612 176.759 56.7582 178.627 59.1036C180.527 61.4173 183.236 62.5733 186.75 62.5734H190.407V66.7579H187.319C182.222 66.7578 178.217 65.3149 175.304 62.4308C172.422 59.5148 170.966 55.4095 170.935 50.1163C170.966 44.8234 172.422 40.734 175.304 37.8497C178.217 34.9341 182.222 33.4769 187.319 33.4767H190.407V37.6613Z" fill="black"/>
<path d="M200.827 47.4552H215.268V33.4767H219.732V66.7579H215.268V51.6388H200.827V66.7579H196.362V33.4767H200.827V47.4552Z" fill="black"/>
</svg>
